 http://s8.postimage.org/b9oq5oscl/image.jpg




Of All the Things [2012 Pinoy] DVDRip EP



info:

Imdb                             : http://www.imdb.com/title/tt1827485/
Source                           : bryantfury & AQOS Thanks!
Genres                           : Comedy
Director                         : Joyce Bernal
Writer                           : Mel Mendoza-Del Rosario (story)
Audio Language                   : Filipino | Tagalog
Country                          : Philippines



General

Complete name                            : Of All the Things [2012 Pinoy] DVDRip EP
Format                                   : Matroska
Format version                           : Version 1
File size                                : 572 MiB
Duration                                 : 1h 44mn
Overall bit rate                         : 768 Kbps
Writing library                          : libmatroska

Video
ID                                       : 1
Format                                   : AVC
Format/Info                              : Advanced Video Codec
Format profile                           : High@L3.0
Format settings, CABAC                   : Yes
Format settings, ReFrames                : 3 frames
Codec ID                                 : H264
Duration                                 : 1h 44mn
Bit rate                                 : 625 Kbps
Width                                    : 640 pixels
Height                                   : 480 pixels
Display aspect ratio                     : 4:3
Frame rate                               : 25.000 fps
Color space                              : YUV
Chroma subsampling                       : 4:2:0
Bit depth                                : 8 bits
Scan type                                : Progressive
Bits/(Pixel*Frame)                       : 0.081
Stream size                              : 466 MiB (81%)
Writing library                          : x264 core 119 r2106kMod 07efeb4
Encoding settings                        : cabac=1 / ref=3 / deblock=1:0:0 / analyse=0x3:0x13
Default                                  : Yes
Forced                                   : No

Audio
ID                                       : 2
Format                                   : MPEG Audio
Format version                           : Version 1
Format profile                           : Layer 3
Codec ID                                 : 55
Codec ID/Hint                            : MP3
Duration                                 : 1h 44mn
Bit rate mode                            : Constant
Bit rate                                 : 128 Kbps
Channel(s)                               : 2 channels
Sampling rate                            : 44.1 KHz
Compression mode                         : Lossy
Stream size                              : 95.4 MiB (17%)
Default                                  : Yes
Forced                                   : No





cast:


Aga Muhlach 		

Regine Velasquez 		

John Lapus 		

Mark Bautista 		

Gina Pareño 		

Tommy Abuel 		

Ariel Ureta 		

Pinky Marquez 		

Raymond Lauchengco 		

Jojo Alejar 		

Joy Viado 		

Nikki Bacolod 		

Jay Perillo 		

Beau Ballinger




plot:

Muhlach plays the role of Umboy, a notary public attorney who earns a living by notarizing important documents and other papers, 

while Velasquez on the other hand plays the role of Berns, a professional documents fixer. Every time Berns needs the help 

of a notary public, she goes to Umboy to "legalized" everything. This "legalization" process of documents was somehow 

Umboy does not agree with Berns. Their different ideology and principles in life have created a cat-and-dog fight situation 

between the two. But what's supposed to be a misunderstanding between the two of them will likely to create a blossoming relationship.

Bound with their principles in life, how do you think the two will end up together — to the dark side where both of them will 

be living a dishonest life where they fix documents illegally or to the light side where everything else is in correct and honest 

manner?




Screenshot:
 
http://s8.postimage.org/5a0z217k5/Of_All_the_Things_2012_Pinoy_DVDRip_elite_pira.jpg